<?xml version="1.0" encoding="utf-8"?>
<!-- Generator: Adobe Illustrator 26.3.1, SVG Export Plug-In . SVG Version: 6.00 Build 0)  -->
<svg version="1.1" id="Layer_1" xmlns="http://www.w3.org/2000/svg" xmlns:xlink="http://www.w3.org/1999/xlink" x="0px" y="0px"
	 viewBox="0 0 2100 2100" style="enable-background:new 0 0 2100 2100;" xml:space="preserve">
<style type="text/css">
	.st0{display:none;fill-rule:evenodd;clip-rule:evenodd;fill:#FFFFFF;}
	.st1{fill-rule:evenodd;clip-rule:evenodd;fill:#D31120;}
	.st2{fill-rule:evenodd;clip-rule:evenodd;fill:url(#SVGID_1_);}
	.st3{fill-rule:evenodd;clip-rule:evenodd;fill:#2E2628;}
	.st4{fill-rule:evenodd;clip-rule:evenodd;fill:url(#SVGID_00000053522599391328058000000016614157974068573875_);}
	.st5{fill:#2E2628;}
</style>
<g>
	<g>
		<circle class="st0" cx="5453.8" cy="1171.6" r="653.9"/>
	</g>
</g>
<g>
	<g>
		<path class="st1" d="M1275.1,897.5c-34.6-27.8-99.1-71.2-147.2-121.4l0,0l0,0c-0.1-0.1-0.1-0.1-0.2-0.2c-0.3-0.5-1.2-1.7-2.5-3.5
			c-31.7-46.7-4.2-112.7-4.2-112.7c17.4,46.8,26.2,78.6,64.1,115.2c8.6,7.9,14.1,13.6,23.6,20.9c3,2.3,6,0.7,6.2,0.6
			c8.9-2.5,11.3-2.2,15.9,2.4l19.9,19.9c1.8,2.3,4.5,9.4,2.1,13.9c4.9,4.1,9.9,8.2,14.8,12.3c7.1-2.8,11.6-3.7,16,0.7l19.9,19.9
			c3.5,3.5,0.7,8.5,2.6,12.9c3.8,3.5,7.5,6.9,11.2,10.4c0.9,0.8,2.1,1.1,3.2,0.6c4.3-1.9,9.6-1.1,13.2,2.5l19.9,19.9
			c4.5,4.5,6.8,14.3,2.7,19c10,12.2,16.6,22,23.7,34.9c25,44.3,66.8,119.1,60.8,165C1446.8,1048.5,1333.6,944.8,1275.1,897.5z"/>
		<g>
			<linearGradient id="SVGID_1_" gradientUnits="userSpaceOnUse" x1="1094.4838" y1="1492.8842" x2="775.2443" y2="1171.6495">
				<stop  offset="2.869311e-04" style="stop-color:#D31120"/>
				<stop  offset="1" style="stop-color:#2E2628"/>
			</linearGradient>
			<path class="st2" d="M820.5,1161.9c17,4.5,33.5,14.4,48.5,24.4c-41-26.9-78.9,3.5-61.9,43.8c14,32.4,61,59.3,89.4,65.2
				c37,8,73.4,7,104.9,44.8c-14-7-35-6.5-51-1.5c50,3,88.4,22.9,93.4,60.3c-20-27.4-59.4,7.5-17.5,31.9
				c31.5,17.9,80.9,28.4,135.9,17.9c-89.9,55.8-204.8,15.4-253.3-84.2c1,31.9,16,62.8,33,77.7c-57-29.4-69.5-85.7-118.4-127
				c-31-26.4-60.4-59.3-73.4-98.6C741.1,1176.8,786,1153.4,820.5,1161.9z"/>
			<path class="st3" d="M1161,477.7c-24.8-41.1-77.7-19.8-89-18c-11.7,1.8-6.4-3.1-6.4-3.1s42.7-35.3,87.2-14.7
				c34.3,15.9,46.6,32.3,50.4,39C1195.1,478.1,1179.3,474.2,1161,477.7z"/>
			<path class="st3" d="M565.7,414.9c-1-47.3-35-87.2-81.4-95.6c174.3-17.9,398.2,53.8,395.2,120.5c6.5-23.4,2-48.3-12.5-67.2
				c124.9,56.8,23,222.6,72.9,318.3c-23-34.9-37.5-74.2-41-116.5c-4.5-54.8-6-100.6-71.9-125c5.5,11.5,7,27.4,3,39.8
				c-22.5-18.9-49-33.9-75.4-44.8C696.1,420.3,629.1,410.4,565.7,414.9L565.7,414.9z"/>
			<g>
				<path class="st1" d="M1075.3,1059.9c-29.2-13.6-116.3-48-154.8-51.2c-102.5-8.5-208,98.1-178.1,190.2
					c-2.1-7.4-3.1-14.9-3.1-22.5c0.1-33.8,20.3-67.5,48.1-91.9c2.1-1.8,4.2-3.6,6.3-5.2c8.5-6.8,17.6-12.7,27-17.4
					c3.5-1.8,7.1-3.4,10.6-4.9c5.9-2.4,11.9-4.4,17.9-5.8c2.4-0.6,4.8-1.1,7.1-1.4c8.3-1.4,16.5-1.7,24.3-0.7
					c4.5,0.6,8.8,1.5,13.1,2.9c8.4,2.8,16.7,5.8,25,9.1c8.3,3.2,16.7,6.6,25,10.2c6.3,2.7,12.6,5.4,18.9,8.2
					c6.3,2.8,12.6,5.6,19,8.5c2.1,1,4.2,1.9,6.4,2.9c8.5,3.9,17.1,7.8,25.8,11.7c2.2,1,4.3,2,6.5,3c26.2,11.8,53.3,23.6,81.9,34
					c71.7,26.2,125.1-2.4,141.4-52.2c0.4-1.2,0.8-2.4,1.1-3.7c2.5-8.7,3.8-17.9,4-27.6c0.1-2.8,0-5.6-0.1-8.4
					c-0.2-3-0.4-6.1-0.8-9.2c-0.3-2.4-0.7-4.9-1.1-7.4c-1.9-10.5-5.2-21.3-9.8-32.3c-1.3-3.1-2.7-6.1-4.3-9.2
					c-0.6-1.2-1.2-2.3-1.8-3.5c0-0.1-0.1-0.1-0.1-0.2c-4.2-7.9-8.8-15.3-13.8-22.2c0,0-0.1-0.1-0.1-0.1c-1.2-1.6-2.3-3.1-3.5-4.7
					c-0.1-0.1-0.2-0.2-0.3-0.4c-1.2-1.5-2.4-3-3.6-4.4c-0.1-0.1-0.2-0.3-0.4-0.4c-1.2-1.4-2.5-2.8-3.7-4.2c-0.1-0.1-0.2-0.2-0.3-0.4
					c-1.2-1.4-2.5-2.7-3.8-4c0,0,0,0,0,0c-4.5-4.5-9.2-8.8-14.3-12.9c0,0,0,0,0,0c-1-0.8-1.9-1.5-2.9-2.3c-0.1-0.1-0.3-0.2-0.4-0.3
					c-0.9-0.7-1.8-1.3-2.6-2c-0.2-0.1-0.4-0.3-0.6-0.4c-0.8-0.6-1.6-1.2-2.5-1.8c-0.3-0.2-0.5-0.4-0.8-0.6c-0.8-0.5-1.6-1.1-2.4-1.6
					c-0.3-0.2-0.6-0.4-0.9-0.6c-0.8-0.5-1.5-1-2.3-1.5c-0.4-0.2-0.7-0.4-1.1-0.7c-0.7-0.5-1.5-0.9-2.2-1.4c-0.4-0.2-0.8-0.5-1.1-0.7
					c-0.7-0.4-1.5-0.9-2.2-1.3c-0.4-0.2-0.8-0.5-1.2-0.7c-0.7-0.4-1.5-0.8-2.2-1.3c-0.4-0.2-0.8-0.5-1.3-0.7
					c-0.8-0.4-1.5-0.8-2.3-1.2c-0.4-0.2-0.8-0.5-1.3-0.7c-0.8-0.4-1.7-0.9-2.5-1.3c-0.4-0.2-0.8-0.4-1.1-0.6
					c-1.2-0.6-2.5-1.2-3.7-1.8c-39-18.4-123.3-30.1-166.5-55.7c-25.5,21.9-45.3,50.7-50.8,72.1c-1.5-28.4-9.1-40.2,6.5-96.6
					c-40.5-23.9-40.5-33.9-67.4-66.2c-38.5,13-79.9,41.3-99.9,76.7c-15.5-55.3,14.4-112.9,49.3-133.9c-6-11.4-14.6-26.3-17.6-38
					c-54.5-1.5-85-4.2-143.2,45.8c15.5-62.8,72.9-95.6,128.4-100.6c-45.5-149.9-226.3-158.4-362.7-132
					c141.9-8.5,242.3,138,181.9,266.5c69.9,15.9,119.9,77.7,120.4,149.4c71.4-35.4,158.4-5,192.4,67.2
					c50.9-37.9,133.6-47.7,205.1-33.4c-0.1,0-0.2,0-0.2,0C1258.6,960.7,1190.3,1113.3,1075.3,1059.9z"/>
				<polygon class="st1" points="742.4,1198.9 742.4,1198.9 742.4,1198.9 				"/>
			</g>
			
				<linearGradient id="SVGID_00000139265486227945529880000013615954771447037081_" gradientUnits="userSpaceOnUse" x1="1344.6296" y1="1253.5498" x2="610.379" y2="251.9362">
				<stop  offset="2.869311e-04" style="stop-color:#D31120"/>
				<stop  offset="1" style="stop-color:#2E2628"/>
			</linearGradient>
			<path style="fill-rule:evenodd;clip-rule:evenodd;fill:url(#SVGID_00000139265486227945529880000013615954771447037081_);" d="
				M1275.1,897.5c-34.6-27.8-99.1-71.2-147.2-121.4c-35.8-46.9-6.8-116.4-6.8-116.4s8-12,16.6-9.3c8.6,2.7,34.5,19.5,55.1,25.1
				c20.6,5.6,44.6,19.6,56.7,30c15.7,13.6,20.2,31.6,30.2,36.6c10,5,24.9,1.7,29.6,0c4.7-1.7,0-10,0-10s11-0.3,20.6-9.3
				s11.2-16,11.2-16c-31.1,14.1-60.5-4.3-105.9-60.6c-26.4-32.7-77-36.6-63.7-59.4c7-11.9,33.1-10.6,48.1-9.9
				c15.1,0.7,53.5,21,82.8,51.6s75.8,30,75.8,30s6.7,23.2-8,43.2c-14.6,20-5.8,14.8-5.8,14.8c38.6-30,55.4-85.9,55.4-85.9
				s23-35-6.3-40c0,0.1,0,0.1,0,0.2c-2.5,10.9-19,14-19,14c10.8-5.7,13.3-15,13.3-15s0,0,0,0c0.1-2.1,0.4-17.9-17-22.6
				c0,0,0,0.1,0,0.1c-2.5,10.9-19,14-19,14c10.8-5.7,13.3-15,13.3-15s0.1-0.1,0.2-0.2c0,0-0.1,0-0.1,0c0,0,1.6-11.3-13.6-16
				c-3.6,9.6-18.5,12.4-18.5,12.4c8.4-4.4,11.8-11,12.9-13.7c0,0,0,0,0,0c0,0,10-37.9-52.5-27.9l-48.6-47.2c0,0-33.9-26.6-55.9,9.3
				c0,0-23.1-11.5-51.2-4.7c0,0-12.2-6.5-35.9-8c-25.1-1.5-77.8,17.3-109.1,54.5s-51.2,79.8-23.9,166.2c0,0,3.2,5,4-8.6
				c0.7-12.8-24.6-50.1,14.6-104.5c39.2-54.4,76.5-53.7,76.5-53.7s-64.4,39.7-75.1,112.8c-9.1,62,15,139.7,108.5,200.1
				c-128.9-27.9-237.8-142-240.8-276.4c-1-37.4-9.5-61.3-23.5-71.2c5,15.4,3,39.4-4,53.8c-60.5-101.1-288.3-149.9-423.7-62.8
				c136.4-26.4,317.2-17.9,362.7,132c-55.5,5-112.9,37.9-128.4,100.6c58.2-50,88.7-47.3,143.2-45.8c3,11.7,11.6,26.6,17.6,38
				c-35,20.9-64.8,78.6-49.3,133.9c20-35.4,61.5-63.8,99.9-76.7c27,32.4,27,42.3,67.4,66.2c-15.6,56.4-8,68.2-6.5,96.6
				c5.5-21.4,25.3-50.2,50.8-72.1c43.2,25.5,127.6,37.3,166.5,55.7c38.5,18.4,65,43.8,83.4,80.7c49,98.1-18.5,190.8-130.4,149.9
				c-76.4-27.9-141.6-65.1-208.6-87.6c-67.4-22.4-173.8,67.7-151.3,146.9c-9-39.8,35.4-62.5,70.5-56.8c12.4,2,21.1,4.1,36.1,14
				c96.9,63.8,266.1,144.8,389,155.3c115.4,10,203.2-73,202.9-180.8C1446.8,1048.5,1333.6,944.8,1275.1,897.5z M1346.3,535.5
				c6.6,1.7,4.5,8.7-0.8,9.2c-5.1,0.4-17.2-5.6-17.2-5.6S1339.7,533.8,1346.3,535.5z M1241,487.1c14.6,2.4,44.3,27.8,44.3,27.8
				s-35.8,6.5-53.1-2.8C1214.9,502.9,1225.7,484.6,1241,487.1z"/>
		</g>
	</g>
	<g>
		<path class="st5" d="M1545,1233.6c-0.4,0-0.8,0-1.2-0.1c-3.8-0.6-6.4-4.2-5.8-8.1c4.2-25.1,6.3-50.8,6.3-76.4
			c0-74.5-17.2-145.5-51.1-211.2c-32.3-62.7-79.5-118.1-136.3-160.1c-3.1-2.3-3.8-6.7-1.5-9.8c2.3-3.1,6.7-3.8,9.8-1.5
			c58.6,43.3,107.2,100.3,140.5,164.9c34.9,67.7,52.6,140.9,52.6,217.6c0,26.4-2.2,52.8-6.5,78.7
			C1551.3,1231.2,1548.3,1233.6,1545,1233.6z"/>
		<path class="st5" d="M621.6,1238.4c-3.3,0-6.3-2.4-6.9-5.8c-4.9-27.4-7.3-55.5-7.3-83.5c0-89.7,25.1-177.1,72.6-252.6
			c2.1-3.3,6.4-4.3,9.7-2.2c3.3,2.1,4.3,6.4,2.2,9.7c-46.1,73.3-70.5,158.1-70.5,245.2c0,27.2,2.4,54.5,7.1,81.1
			c0.7,3.8-1.9,7.4-5.7,8.1C622.4,1238.3,622,1238.4,621.6,1238.4z"/>
		<g>
			<polygon class="st5" points="720,1318.4 675.8,1336.4 701.8,1273.7 690.4,1245.6 570.2,1294.6 584.6,1330 651.6,1302.7 
				629.8,1355.2 599.8,1367.4 614.2,1402.8 734.4,1353.8 			"/>
			
				<rect x="637.8" y="1397.4" transform="matrix(0.8182 -0.5749 0.5749 0.8182 -686.5987 661.4587)" class="st5" width="129.8" height="38.2"/>
			<path class="st5" d="M826.9,1543.5c8.8-9.9,14.5-20.4,17.3-31.4c2.7-11.1,2.2-22.1-1.7-33.1c-3.9-11-11.3-21.4-22.3-31.1
				c-11-9.7-22.2-15.9-33.6-18.4c-11.4-2.5-22.4-1.8-33.1,2.3c-10.7,4-20.4,11-29.1,20.9c-8.9,10.1-14.7,20.6-17.4,31.6
				c-2.7,11-2.1,22,1.9,33c3.9,11,11.4,21.3,22.4,31c11,9.7,22.2,15.9,33.6,18.4c11.4,2.5,22.4,1.8,33.1-2.3
				C808.4,1560.4,818.2,1553.4,826.9,1543.5z M807.3,1502.4c-2,5.4-5.2,10.5-9.5,15.3c-4.3,4.9-9,8.6-14.1,11.3
				c-5.1,2.6-10.3,3.7-15.6,3.2c-5.4-0.5-10.6-3-15.9-7.7c-5.2-4.6-8.4-9.6-9.5-14.8c-1.1-5.3-0.7-10.6,1.3-15.9
				c2-5.4,5.2-10.5,9.5-15.3c4.3-4.9,9-8.6,14.1-11.3c5.1-2.6,10.3-3.7,15.6-3.2c5.3,0.5,10.6,3,15.9,7.7c5.2,4.6,8.4,9.6,9.5,14.8
				C809.7,1491.7,809.3,1497,807.3,1502.4z"/>
			<path class="st5" d="M952.5,1535.8c-6.1-6.9-15.1-13-27.2-18.2l-32.4-14.1l0,0l-18.5-8.1l-51.9,119l35,15.3l11-25.1l12.6,5.5
				c1,0.4,2,0.8,2.9,1.2l5.3,32.3l38.3,16.7l0.9-2l-10.4-43.3c2.6-0.4,5.1-1,7.6-1.8c7.1-2.1,13.5-5.7,19.3-10.7
				c5.8-5,10.4-11.3,13.8-19.2c3.8-8.6,5.2-16.9,4.2-25C962.1,1550.2,958.6,1542.7,952.5,1535.8z M923.2,1569.3
				c-1.6,3.7-3.9,7-6.8,9.6c-2.9,2.7-6.4,4.4-10.5,5.1c-4.1,0.7-8.8-0.1-14.1-2.4l-11.2-4.9l16.2-37l15.9,6.9
				c5.2,2.3,8.8,5.3,10.9,9.1C925.6,1559.5,925.5,1564,923.2,1569.3z"/>
			<polygon class="st5" points="970.9,1572.2 1006.6,1577.1 993.5,1672.9 1031.3,1678.1 1044.5,1582.3 1080.2,1587.2 1084.7,1554.4 
				975.4,1539.4 			"/>
			<path class="st5" d="M1214.9,1597.4l10.4,46.9c-1.3,0.7-2.6,1.4-4,2c-2.9,1.3-6.1,2.4-9.6,3.2c-9,2-17.2,2-24.6,0
				c-7.3-2-13.6-6.1-18.7-12.4c-5.1-6.2-8.9-14.8-11.4-25.7c-3.6-16.2-2.2-29.1,4.3-38.6c6.5-9.6,17-16,31.6-19.2
				c5.9-1.3,11.3-1.9,16.3-1.7s9.2,0.7,12.6,1.5l1.6-0.4l-4.2-18.7c-3.7-0.9-8.1-1.3-13.3-1.2c-5.2,0.1-11,0.9-17.5,2.3
				c-14.2,3.2-25.7,8.6-34.5,16.4c-8.8,7.7-14.7,17.1-17.8,28.1c-3,11-3.1,23-0.2,36.1c2.9,13,7.8,23.9,14.7,32.6
				c6.9,8.7,15.8,14.8,26.7,18.1c10.8,3.3,23.5,3.4,37.9,0.2c6.8-1.5,13-3.6,18.7-6.2c5.6-2.6,10.2-5.4,13.7-8.4l-13.2-59.3
				L1214.9,1597.4z"/>
			<path class="st5" d="M1327.9,1501.4c-1.8-3.2-3.4-6.5-5-9.7c-1.6-3.3-2.7-6-3.5-8.1l-1.4-1.7c-4.6,1.3-9.2,2.9-13.5,4.7
				c-4.4,1.9-8.6,3.8-12.5,6c-7.9,4.3-14.3,8.8-19.1,13.5c-4.8,4.7-8.2,9.6-10.1,15c-2,5.3-2.8,11.1-2.4,17.3
				c0.4,6.2,1.9,13,4.5,20.3l28.6,82.6l18.5-10.1l-12.7-36.4l42.9-23.4l18.2,33.4l18.2-9.9l-46.5-85.3
				C1331.1,1507.2,1329.6,1504.6,1327.9,1501.4z M1293.5,1577.7l-10.1-29c-2-6-3-11.3-3-15.8c0.1-4.5,1.5-8.8,4.3-12.6
				c2.8-3.9,7.5-7.5,13.9-11.1c2.2-1.2,4.4-2.2,6.4-3.1c0.6-0.2,1.1-0.4,1.6-0.6c0.2,0.5,0.5,1.1,0.8,1.6c1,2,2.2,4.2,3.5,6.5
				l22.9,42.1L1293.5,1577.7z"/>
			<polygon class="st5" points="1471.2,1491.1 1424.3,1535.2 1396.7,1505.8 1434.9,1469.8 1422.8,1457 1384.6,1492.9 1360.4,1467.1 
				1405.8,1424.4 1393.4,1411.2 1341.3,1460.1 1341.3,1460.1 1332.7,1468.2 1421.6,1562.8 1432,1552.9 1483.7,1504.4 			"/>
			<polygon class="st5" points="1507.3,1442.3 1414.5,1380.4 1402.9,1397.8 1510.9,1469.8 1552.5,1407.4 1537.3,1397.3 			"/>
			<path class="st5" d="M1588.6,1304.4c-1.2-5.1-3.5-9.6-6.9-13.5c-3.4-3.8-7.9-6.8-13.7-9c-6.4-2.4-12.2-3.1-17.5-2.2
				c-5.2,1-10,3.3-14.2,6.9c-4.2,3.6-7.9,8.2-11.2,13.8l-7.8,12.9c-3.6,6.1-7.4,10.4-11.4,13c-4,2.5-9.2,2.6-15.6,0.2
				c-5.2-2-8.8-4.9-11-8.9c-2.2-4-3.1-8.6-2.7-14c0.4-5.4,1.7-11.2,4-17.4c2.2-5.8,4.7-10.7,7.6-14.7c2.8-3.9,5.5-7.1,8.1-9.5
				l0.5-1.3l-17.9-6.8c-2.6,2.6-5.3,6.1-8.1,10.6c-2.7,4.5-5,9.2-6.9,14.2c-4.1,10.9-6.2,20.8-6.3,29.6c-0.1,8.8,2.1,16.5,6.4,22.9
				c4.3,6.4,10.9,11.3,19.8,14.7c7.2,2.7,13.7,3.5,19.6,2.5c5.9-1.1,11.1-3.5,15.7-7.5c4.6-3.9,8.6-8.8,12-14.7l7.8-13
				c3.4-5.5,6.7-9.4,9.9-11.5c3.2-2.1,7.3-2.2,12.3-0.4c4,1.5,6.8,3.8,8.2,6.9c1.4,3.1,1.8,6.9,1.3,11.3c-0.5,4.4-1.8,9.3-3.8,14.6
				c-1.8,4.7-3.8,9.1-6.1,13s-4.6,7.5-7.1,10.6c-2.5,3.1-4.9,5.8-7.4,7.9l-0.6,1.5l18.4,6.9c2.2-2.5,4.5-5.4,6.9-8.9
				c2.4-3.4,4.7-7.2,6.9-11.4c2.2-4.2,4.2-8.6,6-13.3c2.6-6.9,4.3-13.3,5-19.4C1590,1315.2,1589.8,1309.6,1588.6,1304.4z"/>
		</g>
	</g>
</g>
</svg>
