<?xml version="1.0" encoding="UTF-8"?>
<svg width="752pt" height="752pt" version="1.1" viewBox="0 0 752 752" xmlns="http://www.w3.org/2000/svg">
 <g>
  <path d="m225.88 459.59v-62.277l86.43-87.375 57.066 57.539 6.6289-6.6289-60.379-61.094c-1.8945-1.8945-4.9727-1.8945-6.6289 0l-83.113 84.062-0.003906-106.08c0-5.918 4.9727-10.891 10.891-10.891h233.48l9.4727-9.4727h-243.18c-11.129 0-20.363 9.2344-20.363 20.363v181.86c0 11.129 9.2344 20.363 20.363 20.363h20.363l9.4727-9.4727h-29.836c-5.918 0-10.656-4.9727-10.656-10.891z"/>
  <path d="m513.34 257.37h-6.6289l-9.4727 9.4727h16.102c5.918 0 10.891 4.9727 10.891 10.891v139l-67.484-68.195c-0.94531-0.94531-2.1328-1.4219-3.3164-1.4219-1.1836 0-2.3672 0.47266-3.3164 1.4219l-43.328 43.332-17.285-17.523-6.6289 6.6289 88.324 89.27h-177.59l-9.4727 9.4727h229.21c11.129 0 20.363-9.2344 20.363-20.363v-181.62c0-11.367-9.2344-20.363-20.363-20.363zm10.891 202.22c0 5.918-4.9727 10.891-10.891 10.891h-28.887l-71.039-71.746 39.781-40.02 70.801 71.512v29.363z"/>
  <path d="m234.2 509.91 278.28-278.28 6.6992 6.6992-278.28 278.28z"/>
 </g>
</svg>
